<svg xmlns="http://www.w3.org/2000/svg" xmlns:xlink="http://www.w3.org/1999/xlink" width="529.488" height="86.4"><path fill="white" d="M35.86 48.38L29.02 47.88Q29.09 47.38 29.12 46.80Q29.16 46.22 29.16 45L29.16 45Q29.16 42.91 28.76 40.72Q28.37 38.52 27.29 36.76Q26.21 34.99 24.34 33.84Q22.46 32.69 19.51 32.69L19.51 32.69Q16.99 32.69 15.05 33.80Q13.10 34.92 11.77 36.90Q10.44 38.88 9.76 41.58Q9.07 44.28 9.07 47.52L9.07 47.52Q9.07 51.12 9.90 54.04Q10.73 56.95 12.24 59.00Q13.75 61.06 15.80 62.14Q17.86 63.22 20.38 63.22L20.38 63.22Q28.30 63.22 31.03 55.66L31.03 55.66L36.29 58.46Q35.35 60.77 33.95 62.82Q32.54 64.87 30.53 66.38Q28.51 67.90 25.88 68.76Q23.26 69.62 19.87 69.62L19.87 69.62Q15.84 69.62 12.46 67.93Q9.07 66.24 6.62 63.18Q4.18 60.12 2.77 55.84Q1.37 51.55 1.37 46.44L1.37 46.44Q1.37 41.62 2.77 37.58Q4.18 33.55 6.59 30.71Q9.00 27.86 12.31 26.28Q15.62 24.70 19.51 24.70L19.51 24.70Q21.82 24.70 24.73 25.34Q27.65 25.99 30.20 28.01Q32.76 30.02 34.49 33.80Q36.22 37.58 36.22 43.85L36.22 43.85Q36.22 45.29 36.11 46.66Q36.00 48.02 35.86 48.38L35.86 48.38ZM58.75 69.98L58.75 69.98Q54.29 69.98 50.62 68.08Q46.94 66.17 44.35 63.00Q41.76 59.83 40.32 55.73Q38.88 51.62 38.88 47.30L38.88 47.30Q38.88 42.34 40.32 38.20Q41.76 34.06 44.28 31.10Q46.80 28.15 50.22 26.53Q53.64 24.91 57.67 24.91L57.67 24.91Q62.14 24.91 65.81 26.64Q69.48 28.37 72.07 31.43Q74.66 34.49 76.07 38.66Q77.47 42.84 77.47 47.66L77.47 47.66Q77.47 52.13 76.25 56.16Q75.02 60.19 72.65 63.29Q70.27 66.38 66.78 68.18Q63.29 69.98 58.75 69.98ZM58.97 63.14L58.97 63.14Q61.63 63.14 63.79 61.99Q65.95 60.84 67.39 58.86Q68.83 56.88 69.62 54.22Q70.42 51.55 70.42 48.53L70.42 48.53Q70.42 45.14 69.48 42.34Q68.54 39.53 66.89 37.55Q65.23 35.57 63.00 34.45Q60.77 33.34 58.18 33.34L58.18 33.34Q55.66 33.34 53.53 34.34Q51.41 35.35 49.82 37.15Q48.24 38.95 47.34 41.40Q46.44 43.85 46.44 46.73L46.44 46.73Q46.44 50.11 47.20 53.06Q47.95 56.02 49.54 58.28Q51.12 60.55 53.46 61.85Q55.80 63.14 58.97 63.14ZM81.86 68.76L81 26.50Q83.95 26.14 86.65 25.92Q89.35 25.70 91.87 25.70L91.87 25.70Q103.54 25.70 109.37 30.92Q115.20 36.14 115.20 46.22L115.20 46.22Q115.20 51.55 113.72 55.80Q112.25 60.05 109.15 63.07Q106.06 66.10 101.27 67.72Q96.48 69.34 89.86 69.34L89.86 69.34Q87.98 69.34 85.97 69.19Q83.95 69.05 81.86 68.76L81.86 68.76ZM89.57 34.20L88.70 62.71Q89.14 62.71 89.57 62.75Q90 62.78 90.43 62.78L90.43 62.78Q99.50 62.78 103.54 59.11Q107.57 55.44 107.57 48.17L107.57 48.17Q107.57 41.47 104.36 37.69Q101.16 33.91 93.82 33.91L93.82 33.91Q92.81 33.91 91.76 33.98Q90.72 34.06 89.57 34.20L89.57 34.20ZM126.07 68.47L118.80 68.76L118.30 37.80L126.50 37.44L126.07 68.47ZM127.22 29.23L127.22 29.23Q127.22 30.96 126.00 32.58Q124.78 34.20 122.69 34.20L122.69 34.20Q121.68 34.20 120.78 33.73Q119.88 33.26 119.20 32.44Q118.51 31.61 118.08 30.53Q117.65 29.45 117.65 28.15L117.65 28.15Q117.65 27.43 117.90 26.53Q118.15 25.63 118.73 24.88Q119.30 24.12 120.20 23.58Q121.10 23.04 122.40 23.04L122.40 23.04Q123.55 23.04 124.45 23.69Q125.35 24.34 125.96 25.27Q126.58 26.21 126.90 27.29Q127.22 28.37 127.22 29.23ZM162 66.82L155.66 67.82L138.67 39.10L139.25 70.20L132.41 70.42L130.75 27.86L140.11 26.86L156.02 56.52L154.44 23.04L162.65 23.33L162 66.82ZM200.74 46.73L194.26 47.02Q194.33 46.37 194.36 45.72Q194.40 45.07 194.40 44.50L194.40 44.50Q194.40 41.98 193.82 39.82Q193.25 37.66 192.06 36.04Q190.87 34.42 188.96 33.52Q187.06 32.62 184.39 32.62L184.39 32.62Q179.28 32.62 176.36 35.93Q173.45 39.24 173.45 46.44L173.45 46.44Q173.45 50.04 174.17 53.17Q174.89 56.30 176.33 58.57Q177.77 60.84 179.96 62.14Q182.16 63.43 185.11 63.43L185.11 63.43Q189.43 63.43 191.70 61.67Q193.97 59.90 194.26 57.60L194.26 57.60L185.04 57.17L185.33 50.40L201.74 50.98Q201.74 54.36 201.13 57.64Q200.52 60.91 198.65 63.58Q196.78 66.24 193.36 67.86Q189.94 69.48 184.25 69.48L184.25 69.48Q179.86 69.48 176.36 67.68Q172.87 65.88 170.42 62.89Q167.98 59.90 166.68 56.05Q165.38 52.20 165.38 48.02L165.38 48.02Q165.38 42.19 166.86 37.76Q168.34 33.34 170.89 30.35Q173.45 27.36 176.87 25.88Q180.29 24.41 184.25 24.41L184.25 24.41Q187.70 24.41 190.73 25.56Q193.75 26.71 196.02 28.98Q198.29 31.25 199.62 34.74Q200.95 38.23 200.95 42.84L200.95 42.84Q200.95 44.71 200.74 46.73L200.74 46.73ZM258.41 69.19L249.77 70.13L242.28 37.58L234.79 68.40L226.30 68.40L217.37 26.57L226.73 24.98L231.12 58.90L231.34 58.90L237.46 29.16L246.31 27.50L253.73 59.83L253.94 59.83L260.57 24.98L269.06 26.06L258.41 69.19ZM279.43 68.47L272.16 68.76L271.66 37.80L279.86 37.44L279.43 68.47ZM280.58 29.23L280.58 29.23Q280.58 30.96 279.36 32.58Q278.14 34.20 276.05 34.20L276.05 34.20Q275.04 34.20 274.14 33.73Q273.24 33.26 272.56 32.44Q271.87 31.61 271.44 30.53Q271.01 29.45 271.01 28.15L271.01 28.15Q271.01 27.43 271.26 26.53Q271.51 25.63 272.09 24.88Q272.66 24.12 273.56 23.58Q274.46 23.04 275.76 23.04L275.76 23.04Q276.91 23.04 277.81 23.69Q278.71 24.34 279.32 25.27Q279.94 26.21 280.26 27.29Q280.58 28.37 280.58 29.23ZM301.32 68.62L294.84 69.26L294.84 32.98L283.18 32.98L283.18 25.70L315.58 24.91L315.58 32.98L302.62 32.98L301.32 68.62ZM350.42 70.42L343.94 70.42L343.66 56.74L326.23 57.24L325.80 69.55L318.67 69.55L318.67 25.06L327.24 25.06L326.59 49.97L343.87 49.97L343.15 26.42L352.01 26.42L350.42 70.42ZM368.14 57.89L374.69 55.51Q375.70 59.76 377.42 61.52Q379.15 63.29 382.61 63.29L382.61 63.29Q383.98 63.29 385.34 62.75Q386.71 62.21 387.83 60.66Q388.94 59.11 389.63 56.38Q390.31 53.64 390.31 49.32L390.31 49.32Q390.31 45.58 390.10 42.41Q389.88 39.24 389.48 36.47Q389.09 33.70 388.62 31.28Q388.15 28.87 387.72 26.50L387.72 26.50L396.79 25.78Q396.94 28.01 397.12 30.42Q397.30 32.83 397.44 35.60Q397.58 38.38 397.66 41.65Q397.73 44.93 397.73 48.82L397.73 48.82Q397.73 54.58 396.58 58.61Q395.42 62.64 393.41 65.20Q391.39 67.75 388.69 68.94Q385.99 70.13 382.90 70.13L382.90 70.13Q380.59 70.13 378.40 69.73Q376.20 69.34 374.26 68.04Q372.31 66.74 370.73 64.33Q369.14 61.92 368.14 57.89L368.14 57.89ZM427.82 69.34L402.34 70.27L401.54 26.93L427.68 26.06L427.68 34.13L409.54 34.06L409.32 47.81L425.23 47.09L425.23 54.29L409.18 54.07L408.89 63.72L427.97 62.35L427.82 69.34ZM463.46 40.61L455.98 42.41Q455.90 40.75 455.65 38.99Q455.40 37.22 454.46 35.75Q453.53 34.27 451.69 33.30Q449.86 32.33 446.76 32.33L446.76 32.33Q442.80 32.33 440.53 33.98Q438.26 35.64 438.26 39.10L438.26 39.10Q438.26 42.34 440.93 44.28L440.93 44.28Q442.15 45.22 444.10 45.94Q446.04 46.66 448.78 47.16L448.78 47.16Q451.94 47.74 454.39 48.42Q456.84 49.10 458.71 50.18L458.71 50.18Q460.80 51.41 461.95 53.35Q463.10 55.30 463.10 58.18L463.10 58.18Q463.10 61.20 461.92 63.43Q460.73 65.66 458.60 67.07Q456.48 68.47 453.67 69.16Q450.86 69.84 447.62 69.84L447.62 69.84Q439.85 69.84 435.67 66.85Q431.50 63.86 430.63 58.54L430.63 58.54L437.83 56.02Q438.19 60.12 440.68 62.03Q443.16 63.94 447.34 63.94L447.34 63.94Q451.01 63.94 453.38 62.60Q455.76 61.27 455.76 58.68L455.76 58.68Q455.76 57.67 455.51 56.95Q455.26 56.23 454.39 55.66L454.39 55.66Q453.31 54.86 450.97 54.18Q448.63 53.50 444.31 52.70L444.31 52.70Q439.70 51.84 436.90 50.26L436.90 50.26Q433.66 48.46 432.14 45.61Q430.63 42.77 430.63 38.66L430.63 38.66Q430.63 34.70 432.29 32.04Q433.94 29.38 436.46 27.76Q438.98 26.14 441.94 25.42Q444.89 24.70 447.41 24.70L447.41 24.70Q451.80 24.70 454.75 26.03Q457.70 27.36 459.58 29.56Q461.45 31.75 462.35 34.63Q463.25 37.51 463.46 40.61L463.46 40.61ZM498.02 40.61L490.54 42.41Q490.46 40.75 490.21 38.99Q489.96 37.22 489.02 35.75Q488.09 34.27 486.25 33.30Q484.42 32.33 481.32 32.33L481.32 32.33Q477.36 32.33 475.09 33.98Q472.82 35.64 472.82 39.10L472.82 39.10Q472.82 42.34 475.49 44.28L475.49 44.28Q476.71 45.22 478.66 45.94Q480.60 46.66 483.34 47.16L483.34 47.16Q486.50 47.74 488.95 48.42Q491.40 49.10 493.27 50.18L493.27 50.18Q495.36 51.41 496.51 53.35Q497.66 55.30 497.66 58.18L497.66 58.18Q497.66 61.20 496.48 63.43Q495.29 65.66 493.16 67.07Q491.04 68.47 488.23 69.16Q485.42 69.84 482.18 69.84L482.18 69.84Q474.41 69.84 470.23 66.85Q466.06 63.86 465.19 58.54L465.19 58.54L472.39 56.02Q472.75 60.12 475.24 62.03Q477.72 63.94 481.90 63.94L481.90 63.94Q485.57 63.94 487.94 62.60Q490.32 61.27 490.32 58.68L490.32 58.68Q490.32 57.67 490.07 56.95Q489.82 56.23 488.95 55.66L488.95 55.66Q487.87 54.86 485.53 54.18Q483.19 53.50 478.87 52.70L478.87 52.70Q474.26 51.84 471.46 50.26L471.46 50.26Q468.22 48.46 466.70 45.61Q465.19 42.77 465.19 38.66L465.19 38.66Q465.19 34.70 466.85 32.04Q468.50 29.38 471.02 27.76Q473.54 26.14 476.50 25.42Q479.45 24.70 481.97 24.70L481.97 24.70Q486.36 24.70 489.31 26.03Q492.26 27.36 494.14 29.56Q496.01 31.75 496.91 34.63Q497.81 37.51 498.02 40.61L498.02 40.61ZM527.54 69.34L502.06 70.27L501.26 26.93L527.40 26.06L527.40 34.13L509.26 34.06L509.04 47.81L524.95 47.09L524.95 54.29L508.90 54.07L508.61 63.72L527.69 62.35L527.54 69.34Z"/></svg>